<svg xmlns="http://www.w3.org/2000/svg" viewBox="0 0 1440 680" fill="none">
  <defs>
    <linearGradient id="g-red" x1="0" y1="0" x2="0" y2="1">
      <stop offset="0" stop-color="#e85d5d"/>
      <stop offset="1" stop-color="#c74444"/>
    </linearGradient>
    <linearGradient id="g-blue" x1="0" y1="0" x2="0" y2="1">
      <stop offset="0" stop-color="#5b8dd9"/>
      <stop offset="1" stop-color="#4070b8"/>
    </linearGradient>
    <linearGradient id="g-green" x1="0" y1="0" x2="0" y2="1">
      <stop offset="0" stop-color="#4db88a"/>
      <stop offset="1" stop-color="#2d7a6d"/>
    </linearGradient>
    <linearGradient id="g-yellow" x1="0" y1="0" x2="0" y2="1">
      <stop offset="0" stop-color="#f0c04a"/>
      <stop offset="1" stop-color="#d4a332"/>
    </linearGradient>
    <linearGradient id="g-purple" x1="0" y1="0" x2="0" y2="1">
      <stop offset="0" stop-color="#9b7ed8"/>
      <stop offset="1" stop-color="#7c5fbf"/>
    </linearGradient>
    <linearGradient id="g-orange" x1="0" y1="0" x2="0" y2="1">
      <stop offset="0" stop-color="#e8944a"/>
      <stop offset="1" stop-color="#d07530"/>
    </linearGradient>
    <linearGradient id="g-pink" x1="0" y1="0" x2="0" y2="1">
      <stop offset="0" stop-color="#e87bb5"/>
      <stop offset="1" stop-color="#d45c9a"/>
    </linearGradient>
    <linearGradient id="g-teal" x1="0" y1="0" x2="0" y2="1">
      <stop offset="0" stop-color="#4ecdc4"/>
      <stop offset="1" stop-color="#36b5ac"/>
    </linearGradient>
  </defs>

  <!-- ===================================== -->
  <!--          MEEPLE FIGURES               -->
  <!-- ===================================== -->

  <!-- BIG red meeple - left -->
  <g transform="translate(55, 230) rotate(-10)" opacity="0.22">
    <path d="M28,0 C28,0 35,-12 42,-12 C49,-12 56,0 56,0 C56,0 70,28 70,42 C70,49 63,53 56,53 L53,76 L31,76 L28,53 C21,53 14,49 14,42 C14,28 28,0 28,0 Z" fill="url(#g-red)"/>
    <circle cx="42" cy="-20" r="12" fill="url(#g-red)"/>
  </g>

  <!-- BIG blue meeple - right -->
  <g transform="translate(1300, 200) rotate(8)" opacity="0.2">
    <path d="M28,0 C28,0 35,-12 42,-12 C49,-12 56,0 56,0 C56,0 70,28 70,42 C70,49 63,53 56,53 L53,76 L31,76 L28,53 C21,53 14,49 14,42 C14,28 28,0 28,0 Z" fill="url(#g-blue)"/>
    <circle cx="42" cy="-20" r="12" fill="url(#g-blue)"/>
  </g>

  <!-- Medium green meeple - left lower -->
  <g transform="translate(155, 440) rotate(6)" opacity="0.22">
    <path d="M22,0 C22,0 28,-10 34,-10 C40,-10 46,0 46,0 C46,0 57,22 57,34 C57,40 51,43 46,43 L44,62 L24,62 L22,43 C17,43 11,40 11,34 C11,22 22,0 22,0 Z" fill="url(#g-green)"/>
    <circle cx="34" cy="-16" r="10" fill="url(#g-green)"/>
  </g>

  <!-- Medium yellow meeple - far left top -->
  <g transform="translate(15, 100) rotate(-14)" opacity="0.18">
    <path d="M18,0 C18,0 23,-8 28,-8 C33,-8 38,0 38,0 C38,0 47,18 47,28 C47,33 42,35 38,35 L36,50 L20,50 L18,35 C14,35 9,33 9,28 C9,18 18,0 18,0 Z" fill="url(#g-yellow)"/>
    <circle cx="28" cy="-13" r="8" fill="url(#g-yellow)"/>
  </g>

  <!-- Medium purple meeple - right lower -->
  <g transform="translate(1270, 410) rotate(-7)" opacity="0.19">
    <path d="M22,0 C22,0 28,-10 34,-10 C40,-10 46,0 46,0 C46,0 57,22 57,34 C57,40 51,43 46,43 L44,62 L24,62 L22,43 C17,43 11,40 11,34 C11,22 22,0 22,0 Z" fill="url(#g-purple)"/>
    <circle cx="34" cy="-16" r="10" fill="url(#g-purple)"/>
  </g>

  <!-- Orange meeple - top right -->
  <g transform="translate(1360, 80) rotate(12)" opacity="0.17">
    <path d="M16,0 C16,0 20,-7 24,-7 C28,-7 32,0 32,0 C32,0 40,16 40,24 C40,28 36,30 32,30 L31,43 L17,43 L16,30 C12,30 8,28 8,24 C8,16 16,0 16,0 Z" fill="url(#g-orange)"/>
    <circle cx="24" cy="-11" r="7" fill="url(#g-orange)"/>
  </g>

  <!-- Small pink meeple - bottom left -->
  <g transform="translate(70, 540) rotate(16)" opacity="0.16">
    <path d="M14,0 C14,0 18,-6 22,-6 C26,-6 30,0 30,0 C30,0 36,14 36,22 C36,26 32,28 28,28 L27,38 L15,38 L14,28 C10,28 6,26 6,22 C6,14 14,0 14,0 Z" fill="url(#g-pink)"/>
    <circle cx="22" cy="-10" r="6.5" fill="url(#g-pink)"/>
  </g>

  <!-- Small teal meeple - right mid -->
  <g transform="translate(1180, 540) rotate(-12)" opacity="0.15">
    <path d="M14,0 C14,0 18,-6 22,-6 C26,-6 30,0 30,0 C30,0 36,14 36,22 C36,26 32,28 28,28 L27,38 L15,38 L14,28 C10,28 6,26 6,22 C6,14 14,0 14,0 Z" fill="url(#g-teal)"/>
    <circle cx="22" cy="-10" r="6.5" fill="url(#g-teal)"/>
  </g>

  <!-- Tiny yellow meeple - scattered -->
  <g transform="translate(310, 90) rotate(-22)" opacity="0.14">
    <path d="M10,0 C10,0 13,-5 16,-5 C19,-5 22,0 22,0 C22,0 27,10 27,16 C27,19 24,20 22,20 L21,28 L11,28 L10,20 C8,20 5,19 5,16 C5,10 10,0 10,0 Z" fill="url(#g-yellow)"/>
    <circle cx="16" cy="-8" r="5" fill="url(#g-yellow)"/>
  </g>

  <!-- Tiny green meeple - right -->
  <g transform="translate(1110, 140) rotate(20)" opacity="0.13">
    <path d="M10,0 C10,0 13,-5 16,-5 C19,-5 22,0 22,0 C22,0 27,10 27,16 C27,19 24,20 22,20 L21,28 L11,28 L10,20 C8,20 5,19 5,16 C5,10 10,0 10,0 Z" fill="url(#g-green)"/>
    <circle cx="16" cy="-8" r="5" fill="url(#g-green)"/>
  </g>

  <!-- Tiny purple meeple - bottom center-left -->
  <g transform="translate(370, 550) rotate(10)" opacity="0.12">
    <path d="M10,0 C10,0 13,-5 16,-5 C19,-5 22,0 22,0 C22,0 27,10 27,16 C27,19 24,20 22,20 L21,28 L11,28 L10,20 C8,20 5,19 5,16 C5,10 10,0 10,0 Z" fill="url(#g-purple)"/>
    <circle cx="16" cy="-8" r="5" fill="url(#g-purple)"/>
  </g>

  <!-- Tiny orange meeple - bottom center-right -->
  <g transform="translate(1030, 570) rotate(-16)" opacity="0.12">
    <path d="M10,0 C10,0 13,-5 16,-5 C19,-5 22,0 22,0 C22,0 27,10 27,16 C27,19 24,20 22,20 L21,28 L11,28 L10,20 C8,20 5,19 5,16 C5,10 10,0 10,0 Z" fill="url(#g-orange)"/>
    <circle cx="16" cy="-8" r="5" fill="url(#g-orange)"/>
  </g>

  <!-- ===================================== -->
  <!--          DICE                          -->
  <!-- ===================================== -->

  <!-- Dice 5-face - left -->
  <g transform="translate(250, 500) rotate(-8)" opacity="0.18">
    <rect x="0" y="0" width="52" height="52" rx="9" fill="#faf7f0" stroke="#d4cfc4" stroke-width="1.8"/>
    <circle cx="14" cy="14" r="4.5" fill="#e85d5d"/>
    <circle cx="38" cy="14" r="4.5" fill="#e85d5d"/>
    <circle cx="26" cy="26" r="4.5" fill="#e85d5d"/>
    <circle cx="14" cy="38" r="4.5" fill="#e85d5d"/>
    <circle cx="38" cy="38" r="4.5" fill="#e85d5d"/>
  </g>

  <!-- Dice 4-face - right -->
  <g transform="translate(1090, 450) rotate(10)" opacity="0.16">
    <rect x="0" y="0" width="48" height="48" rx="8" fill="#faf7f0" stroke="#d4cfc4" stroke-width="1.8"/>
    <circle cx="14" cy="14" r="4" fill="#5b8dd9"/>
    <circle cx="34" cy="14" r="4" fill="#5b8dd9"/>
    <circle cx="14" cy="34" r="4" fill="#5b8dd9"/>
    <circle cx="34" cy="34" r="4" fill="#5b8dd9"/>
  </g>

  <!-- Dice 6-face - top right area -->
  <g transform="translate(1200, 100) rotate(-5)" opacity="0.13">
    <rect x="0" y="0" width="40" height="40" rx="7" fill="#faf7f0" stroke="#d4cfc4" stroke-width="1.5"/>
    <circle cx="11" cy="11" r="3" fill="#9b7ed8"/>
    <circle cx="29" cy="11" r="3" fill="#9b7ed8"/>
    <circle cx="11" cy="20" r="3" fill="#9b7ed8"/>
    <circle cx="29" cy="20" r="3" fill="#9b7ed8"/>
    <circle cx="11" cy="29" r="3" fill="#9b7ed8"/>
    <circle cx="29" cy="29" r="3" fill="#9b7ed8"/>
  </g>

  <!-- Dice 3-face - bottom left -->
  <g transform="translate(340, 580) rotate(18)" opacity="0.12">
    <rect x="0" y="0" width="34" height="34" rx="6" fill="#faf7f0" stroke="#d4cfc4" stroke-width="1.3"/>
    <circle cx="10" cy="10" r="2.8" fill="#4db88a"/>
    <circle cx="17" cy="17" r="2.8" fill="#4db88a"/>
    <circle cx="24" cy="24" r="2.8" fill="#4db88a"/>
  </g>

  <!-- ===================================== -->
  <!--       CHESS / GAME PIECES             -->
  <!-- ===================================== -->

  <!-- Chess pawn - left -->
  <g transform="translate(290, 340) rotate(-5)" opacity="0.14" fill="url(#g-orange)">
    <circle cx="14" cy="6" r="6"/>
    <path d="M8,12 C8,12 6,20 5,26 L23,26 C22,20 20,12 20,12 Z"/>
    <rect x="3" y="26" width="22" height="4" rx="2"/>
    <rect x="0" y="30" width="28" height="5" rx="2.5"/>
  </g>

  <!-- Chess pawn - right -->
  <g transform="translate(1140, 290) rotate(7)" opacity="0.13" fill="url(#g-pink)">
    <circle cx="14" cy="6" r="6"/>
    <path d="M8,12 C8,12 6,20 5,26 L23,26 C22,20 20,12 20,12 Z"/>
    <rect x="3" y="26" width="22" height="4" rx="2"/>
    <rect x="0" y="30" width="28" height="5" rx="2.5"/>
  </g>

  <!-- Chess rook / tower - bottom right -->
  <g transform="translate(1150, 580) rotate(-3)" opacity="0.11" fill="url(#g-blue)">
    <rect x="2" y="0" width="4" height="5"/>
    <rect x="10" y="0" width="4" height="5"/>
    <rect x="18" y="0" width="4" height="5"/>
    <rect x="0" y="5" width="24" height="4" rx="1"/>
    <path d="M3,9 L5,26 L19,26 L21,9 Z"/>
    <rect x="0" y="26" width="24" height="4" rx="2"/>
    <rect x="-2" y="30" width="28" height="5" rx="2.5"/>
  </g>

  <!-- ===================================== -->
  <!--      PLAYING CARDS                    -->
  <!-- ===================================== -->

  <!-- Card - left area -->
  <g transform="translate(180, 160) rotate(-18)" opacity="0.13">
    <rect x="0" y="0" width="34" height="48" rx="4" fill="#fff" stroke="#d4cfc4" stroke-width="1.3"/>
    <!-- Heart suit -->
    <path d="M17,14 C17,14 10,8 10,12 C10,18 17,24 17,24 C17,24 24,18 24,12 C24,8 17,14 17,14 Z" fill="#e85d5d" opacity="0.7"/>
  </g>

  <!-- Card - right area -->
  <g transform="translate(1220, 360) rotate(15)" opacity="0.12">
    <rect x="0" y="0" width="34" height="48" rx="4" fill="#fff" stroke="#d4cfc4" stroke-width="1.3"/>
    <!-- Spade suit -->
    <path d="M17,10 C17,10 8,18 8,22 C8,26 12,27 15,25 L14,30 L20,30 L19,25 C22,27 26,26 26,22 C26,18 17,10 17,10 Z" fill="#444" opacity="0.5"/>
  </g>

  <!-- Card stack - top left area -->
  <g transform="translate(350, 40) rotate(8)" opacity="0.1">
    <rect x="3" y="3" width="30" height="42" rx="3.5" fill="#eee" stroke="#d4cfc4" stroke-width="1"/>
    <rect x="0" y="0" width="30" height="42" rx="3.5" fill="#fff" stroke="#d4cfc4" stroke-width="1.2"/>
    <!-- Diamond suit -->
    <polygon points="15,10 21,21 15,32 9,21" fill="#e85d5d" opacity="0.5"/>
  </g>

  <!-- ===================================== -->
  <!--      GAME BOARD / HEX GRID           -->
  <!-- ===================================== -->

  <!-- Hex grid - top left -->
  <g opacity="0.1" stroke="#2d7a6d" stroke-width="1.4" fill="none">
    <polygon points="120,55 148,39 176,55 176,87 148,103 120,87"/>
    <polygon points="176,55 204,39 232,55 232,87 204,103 176,87"/>
    <polygon points="92,103 120,87 148,103 148,135 120,151 92,135"/>
    <polygon points="148,103 176,87 204,103 204,135 176,151 148,135"/>
    <polygon points="204,103 232,87 260,103 260,135 232,151 204,135"/>
    <polygon points="120,151 148,135 176,151 176,183 148,199 120,183"/>
    <polygon points="176,151 204,135 232,151 232,183 204,199 176,183"/>
  </g>
  <!-- Filled hex accents -->
  <polygon points="176,55 204,39 232,55 232,87 204,103 176,87" fill="#4db88a" opacity="0.06"/>
  <polygon points="148,103 176,87 204,103 204,135 176,151 148,135" fill="#5b8dd9" opacity="0.05"/>
  <polygon points="120,151 148,135 176,151 176,183 148,199 120,183" fill="#f0c04a" opacity="0.045"/>

  <!-- Hex grid - top right -->
  <g opacity="0.09" stroke="#2d7a6d" stroke-width="1.4" fill="none" transform="translate(1060, 25)">
    <polygon points="120,55 148,39 176,55 176,87 148,103 120,87"/>
    <polygon points="176,55 204,39 232,55 232,87 204,103 176,87"/>
    <polygon points="232,55 260,39 288,55 288,87 260,103 232,87"/>
    <polygon points="148,103 176,87 204,103 204,135 176,151 148,135"/>
    <polygon points="204,103 232,87 260,103 260,135 232,151 204,135"/>
    <polygon points="176,151 204,135 232,151 232,183 204,199 176,183"/>
  </g>
  <polygon points="1292,80 1320,64 1348,80 1348,112 1320,128 1292,112" fill="#e8944a" opacity="0.055"/>
  <polygon points="1264,128 1292,112 1320,128 1320,160 1292,176 1264,160" fill="#9b7ed8" opacity="0.05"/>

  <!-- ===================================== -->
  <!--       GAME TOKENS / COINS             -->
  <!-- ===================================== -->

  <!-- Coin stack - left -->
  <g transform="translate(310, 430)" opacity="0.14">
    <ellipse cx="18" cy="22" rx="18" ry="6" fill="#d4a332" stroke="#c09028" stroke-width="1"/>
    <ellipse cx="18" cy="18" rx="18" ry="6" fill="#f0c04a" stroke="#d4a332" stroke-width="1"/>
    <ellipse cx="18" cy="14" rx="18" ry="6" fill="#f5d06a" stroke="#d4a332" stroke-width="1"/>
    <text x="18" y="17" text-anchor="middle" font-size="7" font-weight="bold" fill="#c09028">$</text>
  </g>

  <!-- Token ring - left -->
  <circle cx="420" cy="140" r="16" stroke="#e85d5d" stroke-width="2.2" fill="none" opacity="0.13"/>
  <circle cx="420" cy="140" r="8" fill="#e85d5d" opacity="0.08"/>

  <!-- Token ring - right top -->
  <circle cx="1060" cy="110" r="14" stroke="#f0c04a" stroke-width="2" fill="none" opacity="0.13"/>
  <circle cx="1060" cy="110" r="6" fill="#f0c04a" opacity="0.09"/>

  <!-- Token ring - bottom right -->
  <circle cx="980" cy="560" r="12" stroke="#9b7ed8" stroke-width="2" fill="none" opacity="0.11"/>
  <circle cx="980" cy="560" r="5.5" fill="#9b7ed8" opacity="0.08"/>

  <!-- ===================================== -->
  <!--       PUZZLE PIECES                   -->
  <!-- ===================================== -->

  <!-- Puzzle piece - left bottom -->
  <g transform="translate(420, 530) rotate(-8)" opacity="0.14" fill="url(#g-teal)">
    <path d="M0,12 L0,0 L38,0 L38,12 C38,12 45,6 52,12 C59,18 52,24 38,24 L38,38 L0,38 L0,24 C0,24 -7,18 0,12 Z"/>
  </g>

  <!-- Puzzle piece - right -->
  <g transform="translate(900, 560) rotate(12)" opacity="0.12" fill="url(#g-pink)">
    <path d="M0,10 L0,0 L32,0 L32,10 C32,10 38,5 44,10 C50,15 44,20 32,20 L32,32 L0,32 L0,20 C0,20 -6,15 0,10 Z"/>
  </g>

  <!-- ===================================== -->
  <!--       TROPHY / WINNER CUP            -->
  <!-- ===================================== -->

  <g transform="translate(450, 70)" opacity="0.12" fill="url(#g-yellow)">
    <path d="M8,0 L28,0 L26,16 C26,16 26,22 18,22 C10,22 10,16 10,16 Z"/>
    <path d="M8,2 C8,2 2,2 2,8 C2,14 8,14 8,14" fill="none" stroke="#d4a332" stroke-width="1.5"/>
    <path d="M28,2 C28,2 34,2 34,8 C34,14 28,14 28,14" fill="none" stroke="#d4a332" stroke-width="1.5"/>
    <rect x="15" y="22" width="6" height="5" rx="1"/>
    <rect x="10" y="27" width="16" height="4" rx="2"/>
    <text x="18" y="14" text-anchor="middle" font-size="8" font-weight="bold" fill="#c09028" font-family="serif">1</text>
  </g>

  <!-- ===================================== -->
  <!--      HOURGLASS / TIMER               -->
  <!-- ===================================== -->

  <g transform="translate(960, 80)" opacity="0.11">
    <rect x="2" y="0" width="22" height="4" rx="2" fill="#9b7ed8"/>
    <path d="M4,4 L12,18 L4,32" stroke="#9b7ed8" stroke-width="1.5" fill="none"/>
    <path d="M22,4 L14,18 L22,32" stroke="#9b7ed8" stroke-width="1.5" fill="none"/>
    <rect x="2" y="32" width="22" height="4" rx="2" fill="#9b7ed8"/>
    <!-- Sand -->
    <path d="M8,8 L13,16 L18,8 Z" fill="#f0c04a" opacity="0.4"/>
    <path d="M9,28 L13,22 L17,28 Z" fill="#f0c04a" opacity="0.3"/>
  </g>

  <!-- ===================================== -->
  <!--      SHIELD / BADGE                  -->
  <!-- ===================================== -->

  <g transform="translate(530, 580)" opacity="0.1" fill="url(#g-blue)">
    <path d="M14,0 L28,6 L28,18 C28,26 14,34 14,34 C14,34 0,26 0,18 L0,6 Z"/>
    <path d="M14,6 L10,18 L14,16 L18,18 Z" fill="#fff" opacity="0.4"/>
  </g>

  <!-- ===================================== -->
  <!--      CROWN                            -->
  <!-- ===================================== -->

  <g transform="translate(830, 50)" opacity="0.11" fill="url(#g-yellow)">
    <path d="M0,20 L5,6 L12,14 L18,0 L24,14 L31,6 L36,20 Z"/>
    <rect x="0" y="20" width="36" height="5" rx="2"/>
    <circle cx="5" cy="6" r="2" fill="#e85d5d" opacity="0.6"/>
    <circle cx="18" cy="0" r="2.5" fill="#5b8dd9" opacity="0.6"/>
    <circle cx="31" cy="6" r="2" fill="#4db88a" opacity="0.6"/>
  </g>

  <!-- ===================================== -->
  <!--      SPINNING WHEEL / SPINNER        -->
  <!-- ===================================== -->

  <g transform="translate(690, 600)" opacity="0.09">
    <circle cx="20" cy="20" r="20" stroke="#d4cfc4" stroke-width="1.5" fill="#faf7f0"/>
    <path d="M20,0 A20,20 0 0,1 40,20 L20,20 Z" fill="#e85d5d" opacity="0.3"/>
    <path d="M40,20 A20,20 0 0,1 20,40 L20,20 Z" fill="#5b8dd9" opacity="0.3"/>
    <path d="M20,40 A20,20 0 0,1 0,20 L20,20 Z" fill="#4db88a" opacity="0.3"/>
    <path d="M0,20 A20,20 0 0,1 20,0 L20,20 Z" fill="#f0c04a" opacity="0.3"/>
    <circle cx="20" cy="20" r="3" fill="#444" opacity="0.3"/>
    <!-- Arrow -->
    <line x1="20" y1="20" x2="20" y2="4" stroke="#444" stroke-width="1.5" opacity="0.3"/>
    <polygon points="17,6 20,0 23,6" fill="#444" opacity="0.3"/>
  </g>

  <!-- ===================================== -->
  <!--      SCATTERED CONFETTI DOTS          -->
  <!-- ===================================== -->

  <circle cx="480" cy="110" r="4" fill="#e85d5d" opacity="0.12"/>
  <circle cx="530" cy="60" r="3" fill="#5b8dd9" opacity="0.1"/>
  <circle cx="410" cy="50" r="3.5" fill="#f0c04a" opacity="0.11"/>
  <circle cx="560" cy="580" r="3.5" fill="#4db88a" opacity="0.09"/>
  <circle cx="780" cy="50" r="3" fill="#9b7ed8" opacity="0.09"/>
  <circle cx="870" cy="600" r="3.5" fill="#e8944a" opacity="0.08"/>
  <circle cx="640" cy="620" r="2.5" fill="#e87bb5" opacity="0.08"/>
  <circle cx="740" cy="40" r="2.5" fill="#4ecdc4" opacity="0.08"/>
  <circle cx="500" cy="550" r="2.5" fill="#e85d5d" opacity="0.08"/>
  <circle cx="940" cy="600" r="2" fill="#5b8dd9" opacity="0.07"/>
  <circle cx="600" cy="50" r="2.5" fill="#e8944a" opacity="0.08"/>
  <circle cx="680" cy="60" r="2" fill="#4db88a" opacity="0.07"/>

  <!-- Confetti rectangles / squares (tilted) -->
  <rect x="520" y="40" width="6" height="3" rx="1" fill="#e85d5d" opacity="0.1" transform="rotate(30 523 41.5)"/>
  <rect x="630" y="600" width="5" height="3" rx="1" fill="#5b8dd9" opacity="0.08" transform="rotate(-20 632.5 601.5)"/>
  <rect x="770" y="610" width="6" height="3" rx="1" fill="#f0c04a" opacity="0.07" transform="rotate(45 773 611.5)"/>
  <rect x="860" y="45" width="5" height="3" rx="1" fill="#9b7ed8" opacity="0.08" transform="rotate(-35 862.5 46.5)"/>

  <!-- ===================================== -->
  <!--      CROSS / PLUS MARKERS             -->
  <!-- ===================================== -->

  <g stroke-linecap="round" stroke-width="2">
    <line x1="328" y1="460" x2="346" y2="460" stroke="#4db88a" opacity="0.12"/>
    <line x1="337" y1="451" x2="337" y2="469" stroke="#4db88a" opacity="0.12"/>

    <line x1="1140" y1="340" x2="1158" y2="340" stroke="#5b8dd9" opacity="0.1"/>
    <line x1="1149" y1="331" x2="1149" y2="349" stroke="#5b8dd9" opacity="0.1"/>

    <line x1="490" y1="600" x2="506" y2="600" stroke="#e85d5d" opacity="0.09"/>
    <line x1="498" y1="592" x2="498" y2="608" stroke="#e85d5d" opacity="0.09"/>

    <line x1="910" y1="530" x2="926" y2="530" stroke="#f0c04a" opacity="0.09"/>
    <line x1="918" y1="522" x2="918" y2="538" stroke="#f0c04a" opacity="0.09"/>
  </g>

  <!-- ===================================== -->
  <!--      STARS (funky sparkles)           -->
  <!-- ===================================== -->

  <!-- 5-point star - yellow -->
  <polygon points="475,180 479,166 483,180 497,180 486,189 490,203 475,194 460,203 464,189 453,180" fill="#f0c04a" opacity="0.13"/>
  <!-- 5-point star - red -->
  <polygon points="810,46 813,37 816,46 825,46 818,52 821,61 813,55 805,61 808,52 801,46" fill="#e85d5d" opacity="0.1"/>
  <!-- 5-point star - purple small -->
  <polygon points="655,610 657,604 659,610 665,610 660,614 662,620 657,616 652,620 654,614 649,610" fill="#9b7ed8" opacity="0.09"/>
  <!-- 4-point sparkle - teal -->
  <g transform="translate(550, 30)" opacity="0.1" fill="#4ecdc4">
    <path d="M8,0 L10,6 L16,8 L10,10 L8,16 L6,10 L0,8 L6,6 Z"/>
  </g>
  <!-- 4-point sparkle - pink -->
  <g transform="translate(720, 620)" opacity="0.08" fill="#e87bb5">
    <path d="M6,0 L7.5,4.5 L12,6 L7.5,7.5 L6,12 L4.5,7.5 L0,6 L4.5,4.5 Z"/>
  </g>

  <!-- ===================================== -->
  <!--      LIGHTNING BOLT (power-up!)       -->
  <!-- ===================================== -->

  <g transform="translate(1050, 520) rotate(10)" opacity="0.1" fill="url(#g-yellow)">
    <polygon points="10,0 0,16 8,16 4,28 18,12 10,12"/>
  </g>

  <!-- ===================================== -->
  <!--      HEART (health point)             -->
  <!-- ===================================== -->

  <g transform="translate(390, 580)" opacity="0.1" fill="#e85d5d">
    <path d="M12,5 C12,5 2,-4 2,4 C2,12 12,22 12,22 C12,22 22,12 22,4 C22,-4 12,5 12,5 Z"/>
  </g>

  <!-- Heart - top area -->
  <g transform="translate(660, 40) scale(0.8)" opacity="0.09" fill="#e87bb5">
    <path d="M12,5 C12,5 2,-4 2,4 C2,12 12,22 12,22 C12,22 22,12 22,4 C22,-4 12,5 12,5 Z"/>
  </g>

  <!-- ===================================== -->
  <!--      DIAMOND GEM                      -->
  <!-- ===================================== -->

  <g transform="translate(470, 560)" opacity="0.11">
    <polygon points="12,0 22,8 12,24 2,8" fill="url(#g-teal)"/>
    <polygon points="12,0 17,8 12,24" fill="#fff" opacity="0.2"/>
    <line x1="2" y1="8" x2="22" y2="8" stroke="#36b5ac" stroke-width="0.8" opacity="0.4"/>
  </g>

  <g transform="translate(845, 570) scale(0.7)" opacity="0.09">
    <polygon points="12,0 22,8 12,24 2,8" fill="url(#g-purple)"/>
    <polygon points="12,0 17,8 12,24" fill="#fff" opacity="0.2"/>
    <line x1="2" y1="8" x2="22" y2="8" stroke="#7c5fbf" stroke-width="0.8" opacity="0.4"/>
  </g>
</svg>
